<?xml version="1.0" encoding="UTF-8"?>
<svg width="156px" height="411px" viewBox="0 0 156 411" version="1.1" xmlns="http://www.w3.org/2000/svg" xmlns:xlink="http://www.w3.org/1999/xlink">
    <!-- Generator: Sketch 52.2 (67145) - http://www.bohemiancoding.com/sketch -->
    <title>Group 11</title>
    <desc>Created with Sketch.</desc>
    <g id="Page-1" stroke="none" stroke-width="1" fill="none" fill-rule="evenodd">
        <g id="Головна" transform="translate(-193.000000, -1075.000000)">
            <g id="Group-9" transform="translate(-203.000000, 1075.000000)">
                <g id="Group-11" transform="translate(396.000000, 0.000000)">
                    <polygon id="Fill-17" fill="#FFFFFE" points="57 410 95 410 95 220 57 220"></polygon>
                    <path d="M75.5956839,229.337368 C68.0691209,229.337368 52.0121707,213.456355 52.0121707,221.062235 C52.0121707,221.062235 50.6904082,293 75.5956839,293 C100.50096,293 97.9242626,224.158332 97.9242626,224.158332 C97.9242626,216.552452 83.120377,229.337368 75.5956839,229.337368 Z" id="Fill-18" fill="#FFFFFE"></path>
                    <path d="M2.85952682,243.070187 C16.9294066,256.916523 22.0757661,250.269584 46,220.817692 L31.2145894,169 C31.2145894,169 -11.2103529,229.223852 2.85952682,243.070187 Z" id="Fill-19" fill="#FFA854"></path>
                    <path d="M153.944574,242.60733 C142.396911,258.304744 128.571267,247.720602 110,222.951957 L124.616229,171 C124.616229,171 165.492238,226.909915 153.944574,242.60733 Z" id="Fill-20" fill="#FFA854"></path>
                    <path d="M48.2491691,229.394564 C60.5498764,223.4731 97.3372538,223.923878 106.187855,229.394564 C115.038457,234.86525 125.335056,202.989563 129.264293,144.798036 C131.525833,111.267426 128.82223,72.9845208 117.672002,40 L39.7930579,40 C29.4301951,66.8698377 22.047936,102.951381 26.1555153,148.711357 C26.1555153,148.711357 35.9484618,235.316027 48.2491691,229.394564 Z" id="Fill-22" fill="#5DDFC4"></path>
                    <path d="M38.8366396,41.628417 C28.007626,70.1542586 126.014198,64.4545355 118.598957,42.1521872 C111.183715,19.8498388 102.365786,4.08304736 82.4582205,0.493972495 C62.5506553,-3.09510237 49.6656532,13.1025753 38.8366396,41.628417 Z" id="Fill-23" fill="#FFA854"></path>
                    <path d="M75.5,264 C90.4066807,264 103.622015,146 75.5,146 C47.377985,146 60.5933193,264 75.5,264 Z" id="Fill-24" fill="#FFA854"></path>
                    <path d="M107,97 C107,113.56838 93.5679558,127 76.9990529,127 C60.4320442,127 47,113.56838 47,97 C47,80.4316202 60.4320442,67 76.9990529,67 C93.5679558,67 107,80.4316202 107,97" id="Fill-25" fill="#654EA3"></path>
                    <path d="M99,97 C99,108.597271 89.5991814,118 78,118 C66.4027285,118 57,108.597271 57,97 C57,85.4027285 66.4027285,76 78,76 C89.5991814,76 99,85.4027285 99,97" id="Fill-26" fill="#FFFFFF"></path>
                    <path d="M78,390 C78,401.598476 68.373503,411 56.4990499,411 C44.6245968,411 35,401.598476 35,390 C35,378.401524 44.6245968,369 56.4990499,369 C68.373503,369 78,378.401524 78,390" id="Fill-32" fill="#FFFFFE"></path>
                    <path d="M106,347.499049 C106,355.508627 99.5082466,362 91.5009378,362 C83.4936291,362 77,355.508627 77,347.499049 C77,339.491373 83.4936291,333 91.5009378,333 C99.5082466,333 106,339.491373 106,347.499049" id="Fill-33" fill="#FFFFFE"></path>
                </g>
            </g>
        </g>
    </g>
</svg>